<svg viewBox="0 0 64 64" fill="none" xmlns="http://www.w3.org/2000/svg" xmlns:c2pa="http://c2pa.org/manifest"><metadata><c2pa:manifest>AAAWgmp1bWIAAAAeanVtZGMycGEAEQAQgAAAqgA4m3EDYzJwYQAAABZcanVtYgAAAEdqdW1kYzJtYQARABCAAACqADibcQN1cm46YzJwYTo0NGY1NmNiMC01ZTE1LTQyZTItODViNC1iMzc4MjRiMjljOGYAAAADl2p1bWIAAAApanVtZGMyYXMAEQAQgAAAqgA4m3EDYzJwYS5hc3NlcnRpb25zAAAAALxqdW1iAAAARGp1bWRjYm9yABEAEIAAAKoAOJtxE2MycGEuaW5ncmVkaWVudC52MwAAAAAYYzJzaOH6ZA4e5wnTvg6JWOePi/UAAABwY2JvcqNpZGM6Zm9ybWF0bWltYWdlL3N2Zyt4bWxqaW5zdGFuY2VJRHgseG1wOmlpZDo3YmYyMzRmZC0zYTIzLTRjYmMtYWU1My0yZWNmZTU3MDM1ZjlscmVsYXRpb25zaGlwaHBhcmVudE9mAAAB4mp1bWIAAABBanVtZGNib3IAEQAQgAAAqgA4m3ETYzJwYS5hY3Rpb25zLnYyAAAAABhjMnNo10Ixl/HjSuO6e5oigPnjmAAAAZljYm9yomdhY3Rpb25zgqJmYWN0aW9ua2MycGEub3BlbmVkanBhcmFtZXRlcnOha2luZ3JlZGllbnRzgaJjdXJseC1zZWxmI2p1bWJmPWMycGEuYXNzZXJ0aW9ucy9jMnBhLmluZ3JlZGllbnQudjNkaGFzaFggp7DjlLeCIUX4K9yqcQoT8RmrNMu5z29HEBP1yQY7OxmkZmFjdGlvbngdY29tLmFudGhyb3BpYy5jbGF1ZGUucHJvdmlkZWRqcGFyYW1ldGVyc6F4H2NvbS5hbnRocm9waWMub3JpZ2luLWNvbmZpZGVuY2VndW5rbm93bmtkZXNjcmlwdGlvbnhmQ2xhdWRlIHByb3ZpZGVkIHRoaXMgZmlsZSBhdCB0aGUgcmVxdWVzdCBvZiBhIHVzZXIgYW5kIG1heSBoYXZlIGNyZWF0ZWQgb3IgbW9kaWZpZWQgdGhlIGZpbGUgY29udGVudHMubXNvZnR3YXJlQWdlbnShZG5hbWVmQ2xhdWRlcmFsbEFjdGlvbnNJbmNsdWRlZPUAAADIanVtYgAAAEBqdW1kY2JvcgARABCAAACqADibcRNjMnBhLmhhc2guZGF0YQAAAAAYYzJzaIX568OO56nZOoYaQadcY74AAACAY2JvcqVjYWxnZnNoYTI1NmNwYWRNAAAAAAAAAAAAAAAAAGRoYXNoWCDRVO3XkMrGFw0/Ad7Xq3l/2w7lknst4Mex8ITwqAz922RuYW1lbmp1bWJmIG1hbmlmZXN0amV4Y2x1c2lvbnOBomVzdGFydBiHZmxlbmd0aBkeBAAAAj5qdW1iAAAAJ2p1bWRjMmNsABEAEIAAAKoAOJtxA2MycGEuY2xhaW0udjIAAAACD2Nib3KlY2FsZ2ZzaGEyNTZpc2lnbmF0dXJleE1zZWxmI2p1bWJmPS9jMnBhL3VybjpjMnBhOjQ0ZjU2Y2IwLTVlMTUtNDJlMi04NWI0LWIzNzgyNGIyOWM4Zi9jMnBhLnNpZ25hdHVyZWppbnN0YW5jZUlEeCx4bXA6aWlkOjNiMDY2OWIwLTE4MmUtNGYzMy05NzNmLTI2NzMzNDRjMDg2ZXJjcmVhdGVkX2Fzc2VydGlvbnODomN1cmx4LXNlbGYjanVtYmY9YzJwYS5hc3NlcnRpb25zL2MycGEuaW5ncmVkaWVudC52M2RoYXNoWCCnsOOUt4IhRfgr3KpxChPxGas0y7nPb0cQE/XJBjs7GaJjdXJseCpzZWxmI2p1bWJmPWMycGEuYXNzZXJ0aW9ucy9jMnBhLmFjdGlvbnMudjJkaGFzaFggLHJ8SMCE/KUePnpcA+l9K3RF3k9zU9r5VBJSrP0ubR6iY3VybHgpc2VsZiNqdW1iZj1jMnBhLmFzc2VydGlvbnMvYzJwYS5oYXNoLmRhdGFkaGFzaFgg2Jf5vSF1xHi72Xz3Rrm3kWp+jCW7cehvfCYEHYhjbu10Y2xhaW1fZ2VuZXJhdG9yX2luZm+jZG5hbWVvQW50aHJvcGljIEZpbGVzZ3ZlcnNpb25lMS4wLjBrc3BlY1ZlcnNpb25lMi40LjAAABA4anVtYgAAAChqdW1kYzJjcwARABCAAACqADibcQNjMnBhLnNpZ25hdHVyZQAAABAIY2JvctKEWQISogEmGCFZAgowggIGMIIBjaADAgECAhRA5aAK7sI50L64g/oGQgU9Z1UTADAKBggqhkjOPQQDAzBJMRcwFQYDVQQKEw5BbnRocm9waWMsIFBCQzEuMCwGA1UEAxMlQW50aHJvcGljIENvbnRlbnQgQ3JlZGVudGlhbHMgUm9vdCBDQTAeFw0yNjA4MDcxODQzNTZaFw0yODA4MDYxOTQzNTZaMEQxFzAVBgNVBAoTDkFudGhyb3BpYywgUEJDMSkwJwYDVQQDEyBBbnRocm9waWMgQ2xhdWRlIENvbnRlbnQgU2lnbmluZzBZMBMGByqGSM49AgEGCCqGSM49AwEHA0IABJh6CmvLUBgFFNU0vUKlOVtE6djd17L5SuwX0LemFisBM3dkd/3cyjxFA3Qo5S46fX0/ihY0VZ7mfb9KF703t5OjWDBWMA4GA1UdDwEB/wQEAwIHgDAVBgNVHSUEDjAMBgorBgEEAYPoXgIBMAwGA1UdEwEB/wQCMAAwHwYDVR0jBBgwFoAUzlHiBIFOZFsj+OPEz5o+nMHXXMIwCgYIKoZIzj0EAwMDZwAwZAIwMXMdFJ4BetLLVY7ORuE9noqbbAZOZn/aArXyTwFAZfKrPzxF2vPoJNf1+UCdg1XGAjBwX1zd9WGqYkqmL5SFqw1QySjr1zJfpJM9+1rdDwSPLMOPOjKuiXjoU/pUUeG9RwmhY3BhZFkNngAAAAAAAAAAAAAAAAAAAAAAAAAAAAAAAAAAAAAAAAAAAAAAAAAAAAAAAAAAAAAAAAAAAAAAAAAAAAAAAAAAAAAAAAAAAAAAAAAAAAAAAAAAAAAAAAAAAAAAAAAAAAAAAAAAAAAAAAAAAAAAAAAAAAAAAAAAAAAAAAAAAAAAAAAAAAAAAAAAAAAAAAAAAAAAAAAAAAAAAAAAAAAAAAAAAAAAAAAAAAAAAAAAAAAAAAAAAAAAAAAAAAAAAAAAAAAAAAAAAAAAAAAAAAAAAAAAAAAAAAAAAAAAAAAAAAAAAAAAAAAAAAAAAAAAAAAAAAAAAAAAAAAAAAAAAAAAAAAAAAAAAAAAAAAAAAAAAAAAAAAAAAAAAAAAAAAAAAAAAAAAAAAAAAAAAAAAAAAAAAAAAAAAAAAAAAAAAAAAAAAAAAAAAAAAAAAAAAAAAAAAAAAAAAAAAAAAAAAAAAAAAAAAAAAAAAAAAAAAAAAAAAAAAAAAAAAAAAAAAAAAAAAAAAAAAAAAAAAAAAAAAAAAAAAAAAAAAAAAAAAAAAAAAAAAAAAAAAAAAAAAAAAAAAAAAAAAAAAAAAAAAAAAAAAAAAAAAAAAAAAAAAAAAAAAAAAAAAAAAAAAAAAAAAAAAAAAAAAAAAAAAAAAAAAAAAAAAAAAAAAAAAAAAAAAAAAAAAAAAAAAAAAAAAAAAAAAAAAAAAAAAAAAAAAAAAAAAAAAAAAAAAAAAAAAAAAAAAAAAAAAAAAAAAAAAAAAAAAAAAAAAAAAAAAAAAAAAAAAAAAAAAAAAAAAAAAAAAAAAAAAAAAAAAAAAAAAAAAAAAAAAAAAAAAAAAAAAAAAAAAAAAAAAAAAAAAAAAAAAAAAAAAAAAAAAAAAAAAAAAAAAAAAAAAAAAAAAAAAAAAAAAAAAAAAAAAAAAAAAAAAAAAAAAAAAAAAAAAAAAAAAAAAAAAAAAAAAAAAAAAAAAAAAAAAAAAAAAAAAAAAAAAAAAAAAAAAAAAAAAAAAAAAAAAAAAAAAAAAAAAAAAAAAAAAAAAAAAAAAAAAAAAAAAAAAAAAAAAAAAAAAAAAAAAAAAAAAAAAAAAAAAAAAAAAAAAAAAAAAAAAAAAAAAAAAAAAAAAAAAAAAAAAAAAAAAAAAAAAAAAAAAAAAAAAAAAAAAAAAAAAAAAAAAAAAAAAAAAAAAAAAAAAAAAAAAAAAAAAAAAAAAAAAAAAAAAAAAAAAAAAAAAAAAAAAAAAAAAAAAAAAAAAAAAAAAAAAAAAAAAAAAAAAAAAAAAAAAAAAAAAAAAAAAAAAAAAAAAAAAAAAAAAAAAAAAAAAAAAAAAAAAAAAAAAAAAAAAAAAAAAAAAAAAAAAAAAAAAAAAAAAAAAAAAAAAAAAAAAAAAAAAAAAAAAAAAAAAAAAAAAAAAAAAAAAAAAAAAAAAAAAAAAAAAAAAAAAAAAAAAAAAAAAAAAAAAAAAAAAAAAAAAAAAAAAAAAAAAAAAAAAAAAAAAAAAAAAAAAAAAAAAAAAAAAAAAAAAAAAAAAAAAAAAAAAAAAAAAAAAAAAAAAAAAAAAAAAAAAAAAAAAAAAAAAAAAAAAAAAAAAAAAAAAAAAAAAAAAAAAAAAAAAAAAAAAAAAAAAAAAAAAAAAAAAAAAAAAAAAAAAAAAAAAAAAAAAAAAAAAAAAAAAAAAAAAAAAAAAAAAAAAAAAAAAAAAAAAAAAAAAAAAAAAAAAAAAAAAAAAAAAAAAAAAAAAAAAAAAAAAAAAAAAAAAAAAAAAAAAAAAAAAAAAAAAAAAAAAAAAAAAAAAAAAAAAAAAAAAAAAAAAAAAAAAAAAAAAAAAAAAAAAAAAAAAAAAAAAAAAAAAAAAAAAAAAAAAAAAAAAAAAAAAAAAAAAAAAAAAAAAAAAAAAAAAAAAAAAAAAAAAAAAAAAAAAAAAAAAAAAAAAAAAAAAAAAAAAAAAAAAAAAAAAAAAAAAAAAAAAAAAAAAAAAAAAAAAAAAAAAAAAAAAAAAAAAAAAAAAAAAAAAAAAAAAAAAAAAAAAAAAAAAAAAAAAAAAAAAAAAAAAAAAAAAAAAAAAAAAAAAAAAAAAAAAAAAAAAAAAAAAAAAAAAAAAAAAAAAAAAAAAAAAAAAAAAAAAAAAAAAAAAAAAAAAAAAAAAAAAAAAAAAAAAAAAAAAAAAAAAAAAAAAAAAAAAAAAAAAAAAAAAAAAAAAAAAAAAAAAAAAAAAAAAAAAAAAAAAAAAAAAAAAAAAAAAAAAAAAAAAAAAAAAAAAAAAAAAAAAAAAAAAAAAAAAAAAAAAAAAAAAAAAAAAAAAAAAAAAAAAAAAAAAAAAAAAAAAAAAAAAAAAAAAAAAAAAAAAAAAAAAAAAAAAAAAAAAAAAAAAAAAAAAAAAAAAAAAAAAAAAAAAAAAAAAAAAAAAAAAAAAAAAAAAAAAAAAAAAAAAAAAAAAAAAAAAAAAAAAAAAAAAAAAAAAAAAAAAAAAAAAAAAAAAAAAAAAAAAAAAAAAAAAAAAAAAAAAAAAAAAAAAAAAAAAAAAAAAAAAAAAAAAAAAAAAAAAAAAAAAAAAAAAAAAAAAAAAAAAAAAAAAAAAAAAAAAAAAAAAAAAAAAAAAAAAAAAAAAAAAAAAAAAAAAAAAAAAAAAAAAAAAAAAAAAAAAAAAAAAAAAAAAAAAAAAAAAAAAAAAAAAAAAAAAAAAAAAAAAAAAAAAAAAAAAAAAAAAAAAAAAAAAAAAAAAAAAAAAAAAAAAAAAAAAAAAAAAAAAAAAAAAAAAAAAAAAAAAAAAAAAAAAAAAAAAAAAAAAAAAAAAAAAAAAAAAAAAAAAAAAAAAAAAAAAAAAAAAAAAAAAAAAAAAAAAAAAAAAAAAAAAAAAAAAAAAAAAAAAAAAAAAAAAAAAAAAAAAAAAAAAAAAAAAAAAAAAAAAAAAAAAAAAAAAAAAAAAAAAAAAAAAAAAAAAAAAAAAAAAAAAAAAAAAAAAAAAAAAAAAAAAAAAAAAAAAAAAAAAAAAAAAAAAAAAAAAAAAAAAAAAAAAAAAAAAAAAAAAAAAAAAAAAAAAAAAAAAAAAAAAAAAAAAAAAAAAAAAAAAAAAAAAAAAAAAAAAAAAAAAAAAAAAAAAAAAAAAAAAAAAAAAAAAAAAAAAAAAAAAAAAAAAAAAAAAAAAAAAAAAAAAAAAAAAAAAAAAAAAAAAAAAAAAAAAAAAAAAAAAAAAAAAAAAAAAAAAAAAAAAAAAAAAAAAAAAAAAAAAAAAAAAAAAAAAAAAAAAAAAAAAAAAAAAAAAAAAAAAAAAAAAAAAAAAAAAAAAAAAAAAAAAAAAAAAAAAAAAAAAAAAAAAAAAAAAAAAAAAAAAAAAAAAAAAAAAAAAAAAAAAAAAAAAAAAAAAAAAAAAAAAAAAAAAAAAAAAAAAAAAAAAAAAAAAAAAAAAAAAAAAAAAAAAAAAAAAAAAAAAAAAAAAAAAAAAAAAAAAAAAAAAAAAAAAAAAAAAAAAAAAAAAAAAAAAAAAAAAAAAAAAAAAAAAAAAAAAAAAAAAAAAAAAAAAAAAAAAAAAAAAAAAAAAAAAAAAAAAAAAAAAAAAAAAAAAAAAAAAAAAAAAAAAAAAAAAAAAAAAAAAAAAAAAAAAAAAAAAAAAAAAAAAAAAAAAAAAAAAAAAAAAAAAAAAAAAAAAAAAAAAAAAAAAAAAAAAAAAAAAAAAAAAAAAAAAAAAAAAAAAAAAAAAAAAAAAAAAAAAAAAAAAAAAAAAAAAAAAAAAAAAAAAAAAAAAAAAAAAAAAAAAAAAAAAAAAAAAAAAAAAAAAAAAAAAAAAAAAAAAAAAAAAAAAAAAAAAAAAAAAAAAAAAAAAAAAAAAAAAAAAAAAAAAAAAAAAAAAAAAAAAAAAAAAAAAAAAAAAAAAAAAAAAAAAAAAAAAAAAAAAAAAAAAAAAAAAAAAAAAAAAAAAAAAAAAAAAAAAAAAAAAAAAAAAAAAAAAAAAAAAAAAAAAAAAAAAAAAAAAAAAAAAAAAAAAAAAAAAAAAAAAAAAAAAAAAAAAAAAAAAAAAAAAAAAAAAAAAAAAAAAAAAAAAAAAAAAAAAAAAAAAAAAAAAAAAAAAAAAAAAAAAAAAAAAAAAAAAAAAAAAAAAAAAAAAAAAAAAAAAAAAAAAAAAAAAAAAAAAAAAAAAAAAAAAAAAAAAAAAAAAAAAAAAAAAAAAAAAAAAAAAAAAAAAAAAAAAAAAAAAAAAAAAAAAAAAAAAAAAAAAAAAAAAAAAAAAAAAAAAAAAAAAAAAAAAAAAAAAAAAAAAAAAAAAAAAAAAAAAAAAAAAAAAAAAAAAAAAAAAAAAAAAAAAAAAAAAAAAAAAAAAAAAAAAAAAAAAAAAAAAAAAAAAAAAAAAAAAAAAAAAAAAAAAAAAAAAAAAAAAAAAAAAAAAAAAAAAAAAAAAAAAAAAAAAAAAAAAAAAAAAAAAAAAAAAAAAAAAAAAAAAAAAAAAAAAAAAAAAAAAAAAAAAAAAAAAAAAAAAAAAAAAAAAAAAAAAAAAAAAAAAAAAAAAAAAAAAAAAAAAAAAAAAAAAAAAAAAAAAAAAAAAAAAAAAAAAAAAAAAAAAAAAAAAAAAAAAAAAAAAAAAAAAAAAAAAAAAAAAAAAAAAAAAAAAAAAAAAAAAAAAAAAAAAAAAAAAAAAAAAAAAAAAAAAAAAAAAAAAAAAAAPZYQLKyvo8qTfeZimwxg8S4rARrNtM+oTI8pahbi032cNeCJIRQ3/QW2vOZODUXwYbS47Y9fZOtymW8nAThwmOSzmc=</c2pa:manifest></metadata>
  <defs>
    <linearGradient id="canvaBorder" x1="0" y1="64" x2="64" y2="0" gradientUnits="userSpaceOnUse">
      <stop offset="0" stop-color="#7D2AE7"/>
      <stop offset="1" stop-color="#00C4CC"/>
    </linearGradient>
  </defs>
  <rect width="64" height="64" rx="15" fill="#0F0A2E"/>
  <rect x="1" y="1" width="62" height="62" rx="14" stroke="url(#canvaBorder)" stroke-width="2" stroke-opacity="0.85"/>
  <g transform="translate(9.5 9.5) scale(0.7)">
<g>
        <path d="M32,64C49.673,64 64,49.673 64,32C64,14.327 49.673,0 32,0C14.327,0 0,14.327 0,32C0,49.673 14.327,64 32,64Z" style="fill:rgb(125,42,231);fill-rule:nonzero;"/>
    </g>
    <g>
        <path d="M32,64C49.673,64 64,49.673 64,32C64,14.327 49.673,0 32,0C14.327,0 0,14.327 0,32C0,49.673 14.327,64 32,64Z" style="fill:url(#_Radial1);fill-rule:nonzero;"/>
    </g>
    <g>
        <path d="M32,64C49.673,64 64,49.673 64,32C64,14.327 49.673,0 32,0C14.327,0 0,14.327 0,32C0,49.673 14.327,64 32,64Z" style="fill:url(#_Radial2);fill-rule:nonzero;"/>
    </g>
    <g>
        <path d="M32,64C49.673,64 64,49.673 64,32C64,14.327 49.673,0 32,0C14.327,0 0,14.327 0,32C0,49.673 14.327,64 32,64Z" style="fill:url(#_Radial3);fill-rule:nonzero;"/>
    </g>
    <g>
        <path d="M32,64C49.673,64 64,49.673 64,32C64,14.327 49.673,0 32,0C14.327,0 0,14.327 0,32C0,49.673 14.327,64 32,64Z" style="fill:url(#_Radial4);fill-rule:nonzero;"/>
    </g>
    <g>
        <path d="M57.249,33.389C57.164,33.389 57.088,33.446 57.05,33.56C56.535,35.026 55.84,35.901 55.268,35.901C54.94,35.901 54.807,35.535 54.807,34.959C54.807,33.525 55.67,30.479 56.099,29.089C56.15,28.946 56.179,28.795 56.185,28.643C56.185,28.239 55.964,28.04 55.417,28.04C54.87,28.04 54.191,28.274 53.578,29.354C53.363,28.4 52.719,27.983 51.818,27.983C50.779,27.983 49.774,28.653 48.946,29.737C48.118,30.82 47.148,31.18 46.415,31.004C46.943,29.718 47.136,28.754 47.136,28.04C47.136,26.918 46.583,26.242 45.689,26.242C44.327,26.242 43.543,27.541 43.543,28.906C43.543,29.961 44.02,31.048 45.076,31.576C44.194,33.569 42.905,35.373 42.415,35.373C41.783,35.373 41.597,32.283 41.635,30.072C41.654,28.805 41.761,28.738 41.761,28.353C41.761,28.135 41.616,27.983 41.044,27.983C39.707,27.983 39.29,29.117 39.23,30.419C39.207,30.913 39.13,31.402 38.999,31.879C38.437,33.876 37.287,35.389 36.535,35.389C36.184,35.389 36.093,35.038 36.093,34.584C36.093,33.149 36.895,31.351 36.895,29.822C36.895,28.694 36.402,27.983 35.47,27.983C34.377,27.983 32.927,29.288 31.555,31.727C32.007,29.86 32.191,28.049 30.857,28.049C30.567,28.054 30.282,28.128 30.026,28.264C29.843,28.359 29.745,28.53 29.758,28.719C29.884,30.713 28.153,35.809 26.51,35.809C26.209,35.809 26.067,35.487 26.067,34.963C26.067,33.528 26.924,30.489 27.353,29.095C27.406,28.944 27.434,28.785 27.439,28.624C27.439,28.245 27.205,28.049 26.671,28.049C26.083,28.049 25.448,28.274 24.832,29.354C24.617,28.4 23.973,27.983 23.075,27.983C21.6,27.983 19.947,29.544 19.224,31.582C18.254,34.299 16.298,36.922 13.666,36.922C11.277,36.922 10.017,34.934 10.017,31.797C10.017,27.259 13.347,23.556 15.814,23.556C16.996,23.556 17.558,24.308 17.558,25.462C17.558,26.858 16.781,27.506 16.781,28.037C16.781,28.198 16.914,28.359 17.183,28.359C18.257,28.359 19.517,27.098 19.517,25.38C19.517,23.661 18.124,22.4 15.653,22.4C11.574,22.4 7.467,26.508 7.467,31.768C7.467,35.955 9.533,38.479 13.103,38.479C15.54,38.479 17.669,36.587 18.819,34.372C18.949,36.207 19.78,37.162 21.047,37.162C22.175,37.162 23.088,36.492 23.786,35.31C24.055,36.546 24.765,37.152 25.691,37.152C26.753,37.152 27.638,36.479 28.481,35.231C28.469,36.211 28.693,37.133 29.543,37.133C29.944,37.133 30.424,37.042 30.51,36.691C31.401,32.991 33.616,29.97 34.292,29.97C34.491,29.97 34.545,30.16 34.545,30.391C34.545,31.395 33.837,33.456 33.837,34.77C33.837,36.195 34.44,37.133 35.688,37.133C37.072,37.133 38.478,35.44 39.417,32.962C39.711,35.276 40.346,37.143 41.335,37.143C42.554,37.143 44.719,34.58 46.029,31.863C46.542,31.929 47.316,31.914 48.055,31.389C47.742,32.188 47.556,33.064 47.556,33.936C47.556,36.457 48.756,37.162 49.793,37.162C50.921,37.162 51.834,36.492 52.532,35.31C52.763,36.375 53.35,37.149 54.434,37.149C56.128,37.149 57.6,35.417 57.6,33.996C57.6,33.62 57.439,33.389 57.249,33.389ZM22.083,35.768C21.397,35.768 21.129,35.076 21.129,34.049C21.129,32.267 22.348,29.285 23.641,29.285C24.203,29.285 24.418,29.951 24.418,30.764C24.418,32.574 23.258,35.768 22.083,35.768ZM45.521,30.441C45.113,29.955 44.965,29.291 44.965,28.703C44.965,27.977 45.23,27.364 45.55,27.364C45.868,27.364 45.963,27.677 45.963,28.113C45.963,28.839 45.704,29.907 45.521,30.441ZM50.826,35.768C50.144,35.768 49.875,34.975 49.875,34.049C49.875,32.328 51.094,29.285 52.396,29.285C52.959,29.285 53.161,29.942 53.161,30.764C53.161,32.574 52.02,35.768 50.826,35.768Z" style="fill:white;fill-rule:nonzero;"/>
    </g>
    <defs>
        <radialGradient id="_Radial1" cx="0" cy="0" r="1" gradientUnits="userSpaceOnUse" gradientTransform="matrix(32.202179,-37.591636,37.591636,32.202179,12.3621,56.7242)"><stop offset="0" style="stop-color:rgb(100,32,255);stop-opacity:1"/><stop offset="1" style="stop-color:rgb(100,32,255);stop-opacity:0"/></radialGradient>
        <radialGradient id="_Radial2" cx="0" cy="0" r="1" gradientUnits="userSpaceOnUse" gradientTransform="matrix(32.252536,45.557791,-45.557791,32.252536,16.9432,7.27579)"><stop offset="0" style="stop-color:rgb(0,196,204);stop-opacity:1"/><stop offset="1" style="stop-color:rgb(0,196,204);stop-opacity:0"/></radialGradient>
        <radialGradient id="_Radial3" cx="0" cy="0" r="1" gradientUnits="userSpaceOnUse" gradientTransform="matrix(34.458976,-34.694817,15.956619,15.848152,12.3621,56.7242)"><stop offset="0" style="stop-color:rgb(100,32,255);stop-opacity:1"/><stop offset="1" style="stop-color:rgb(100,32,255);stop-opacity:0"/></radialGradient>
        <radialGradient id="_Radial4" cx="0" cy="0" r="1" gradientUnits="userSpaceOnUse" gradientTransform="matrix(20.07576,46.214755,-77.420026,33.631377,26.1726,8.62316)"><stop offset="0" style="stop-color:rgb(0,196,204);stop-opacity:0.73"/><stop offset="0" style="stop-color:rgb(0,196,204);stop-opacity:1"/><stop offset="1" style="stop-color:rgb(0,196,204);stop-opacity:0"/></radialGradient>
    </defs>
  </g>
</svg>